<svg width="19" height="19" viewBox="0 0 19 19" fill="none" xmlns="http://www.w3.org/2000/svg">
<path fill-rule="evenodd" clip-rule="evenodd" d="M2.26716e-07 1.53167C2.26716e-07 1.12545 0.161372 0.73586 0.448615 0.448617C0.735858 0.161374 1.12544 2.04193e-06 1.53167 2.04193e-06H16.8C17.0013 -0.000326751 17.2007 0.0390545 17.3868 0.115891C17.5729 0.192727 17.7419 0.30551 17.8844 0.447782C18.0268 0.590054 18.1398 0.759022 18.2168 0.94501C18.2938 1.131 18.3334 1.33036 18.3333 1.53167V16.8C18.3336 17.0014 18.2941 17.2008 18.2171 17.3869C18.1402 17.5729 18.0274 17.742 17.885 17.8844C17.7427 18.0268 17.5737 18.1398 17.3876 18.2168C17.2016 18.2939 17.0022 18.3334 16.8008 18.3333H1.53167C1.33046 18.3333 1.13122 18.2937 0.945331 18.2167C0.759446 18.1396 0.59056 18.0267 0.44832 17.8844C0.306081 17.7421 0.193277 17.5732 0.116352 17.3872C0.0394277 17.2013 -0.000109246 17.002 2.26716e-07 16.8008V1.53167ZM7.25667 6.99H9.73917V8.23667C10.0975 7.52 11.0142 6.875 12.3917 6.875C15.0325 6.875 15.6583 8.3025 15.6583 10.9217V15.7733H12.9858V11.5183C12.9858 10.0267 12.6275 9.185 11.7175 9.185C10.455 9.185 9.93 10.0925 9.93 11.5183V15.7733H7.25667V6.99ZM2.67333 15.6592H5.34667V6.875H2.67333V15.6583V15.6592ZM5.72917 4.01C5.73421 4.2389 5.69348 4.46649 5.60937 4.67943C5.52526 4.89237 5.39946 5.08636 5.23936 5.25003C5.07926 5.41369 4.88808 5.54373 4.67705 5.63251C4.46601 5.72129 4.23937 5.76702 4.01042 5.76702C3.78147 5.76702 3.55482 5.72129 3.34379 5.63251C3.13275 5.54373 2.94157 5.41369 2.78147 5.25003C2.62137 5.08636 2.49558 4.89237 2.41147 4.67943C2.32736 4.46649 2.28663 4.2389 2.29167 4.01C2.30156 3.56071 2.48699 3.13316 2.80824 2.81891C3.12949 2.50465 3.56102 2.32868 4.01042 2.32868C4.45981 2.32868 4.89135 2.50465 5.2126 2.81891C5.53385 3.13316 5.71927 3.56071 5.72917 4.01Z" fill="black"/>
</svg>
