<svg width="22" height="22" viewBox="0 0 22 22" fill="none" xmlns="http://www.w3.org/2000/svg">
<path d="M10.9375 0C4.89746 0 0 4.89746 0 10.9375C0 16.9775 4.89746 21.875 10.9375 21.875C16.9775 21.875 21.875 16.9775 21.875 10.9375C21.875 4.89746 16.9775 0 10.9375 0ZM16.1938 8.24463C16.2012 8.35938 16.2012 8.479 16.2012 8.59619C16.2012 12.1802 13.4717 16.3086 8.48389 16.3086C6.9458 16.3086 5.52002 15.8618 4.31885 15.0928C4.53857 15.1172 4.74854 15.127 4.97315 15.127C6.24268 15.127 7.40967 14.6973 8.33984 13.9697C7.14844 13.9453 6.14746 13.1641 5.80566 12.0898C6.22314 12.1509 6.59912 12.1509 7.02881 12.041C6.41535 11.9164 5.86395 11.5832 5.4683 11.0981C5.07265 10.613 4.85714 10.0059 4.8584 9.37988V9.3457C5.21729 9.54834 5.63965 9.67285 6.08154 9.68994C5.71006 9.44237 5.40542 9.10696 5.19461 8.71345C4.9838 8.31994 4.87335 7.8805 4.87305 7.43408C4.87305 6.92871 5.00488 6.46729 5.2417 6.06689C5.92261 6.90512 6.77229 7.59068 7.73551 8.07902C8.69873 8.56736 9.75393 8.84754 10.8325 8.90137C10.4492 7.05811 11.8262 5.56641 13.4814 5.56641C14.2627 5.56641 14.9658 5.89355 15.4614 6.4209C16.0742 6.30615 16.6602 6.07666 17.1826 5.76904C16.98 6.39648 16.5552 6.92627 15.9912 7.26074C16.5381 7.20215 17.0654 7.05078 17.5537 6.83838C17.1851 7.38037 16.7236 7.86133 16.1938 8.24463Z" fill="black"/>
</svg>
